<svg version="1.1" id="Layer_1" xmlns="http://www.w3.org/2000/svg" xmlns:xlink="http://www.w3.org/1999/xlink" x="0px" y="0px"
	 width="100%" viewBox="0 0 612 612" enable-background="new 0 0 612 612" xml:space="preserve">

<path fill="#FAFAFA" opacity="1.000000" stroke="none" 
	d="
M398.991302,427.386230 
	C403.946503,427.386200 408.403809,427.386200 413.717285,427.386200 
	C412.451630,425.795593 411.776764,424.769470 410.929993,423.913422 
	C406.711517,419.648834 401.889130,415.849640 398.316528,411.105591 
	C390.912445,401.273834 381.712158,398.203125 369.463043,398.950714 
	C351.530121,400.045135 333.480560,399.228088 315.480682,399.225708 
	C313.680023,399.225464 311.879333,399.225677 308.643677,399.225677 
	C317.101410,390.857727 324.580597,383.374329 332.203644,376.040466 
	C332.996918,375.277344 334.642700,375.154083 335.894196,375.150360 
	C355.060608,375.093933 374.227539,375.059662 393.393250,375.189178 
	C394.997284,375.199982 397.029663,376.000977 398.128448,377.142181 
	C421.352448,401.261688 444.472076,425.481689 467.596832,449.696686 
	C467.905060,450.019440 468.016418,450.530212 468.395874,451.320068 
	C372.983490,451.320068 277.841339,451.320068 182.873154,451.320068 
	C253.047989,380.597260 323.152649,309.945160 393.660065,238.887192 
	C391.429871,238.887192 389.214783,238.887222 386.999664,238.887207 
	C331.999847,238.886536 276.999939,238.912704 222.000397,238.786819 
	C219.802017,238.781799 216.957047,237.962326 215.507507,236.463882 
	C192.689575,212.875748 170.050064,189.114975 147.378601,165.385208 
	C146.717773,164.693527 146.155457,163.907730 145.136856,162.665253 
	C240.227661,162.665253 334.713074,162.665253 430.289459,162.665253 
	C422.147034,170.775986 414.737854,178.325516 407.069946,185.602402 
	C405.985168,186.631897 403.640167,186.608643 401.878204,186.609619 
	C336.712341,186.645676 271.546417,186.627075 206.380524,186.615967 
	C204.621902,186.615662 202.863297,186.615936 201.104675,186.615936 
	C200.834244,187.083694 200.563828,187.551437 200.293396,188.019196 
	C206.100952,193.601089 212.492783,198.703140 217.569748,204.885040 
	C224.072021,212.802505 231.574707,215.097458 241.758545,215.027527 
	C310.588470,214.554764 379.423187,214.779343 448.256348,214.778305 
	C450.062683,214.778275 451.869019,214.778305 453.244781,214.778305 
	C383.246735,285.364014 313.206940,355.991760 242.406815,427.386261 
	C294.831085,427.386261 346.662231,427.386261 398.991302,427.386230 
z"/>
<path fill="#FCFBFB" opacity="1.000000" stroke="none" 
	d="
M188.153610,370.153381 
	C221.532532,336.857544 254.668930,303.818207 287.712158,270.685974 
	C290.354492,268.036530 292.977814,266.730042 296.825500,266.837463 
	C306.635620,267.111328 316.458496,266.928619 327.214386,266.928619 
	C325.721680,268.619507 324.774475,269.819427 323.699768,270.891571 
	C281.834808,312.657135 239.983734,354.436798 197.993027,396.075653 
	C196.247421,397.806610 193.208344,399.004242 190.726562,399.086670 
	C180.621552,399.422272 170.498901,399.226379 159.622223,398.107178 
	C169.043884,388.866791 178.465530,379.626404 188.153610,370.153381 
z"/>
</svg>